<?xml version="1.0" encoding="utf-8"?>
<!-- Generator: Adobe Illustrator 19.0.0, SVG Export Plug-In . SVG Version: 6.00 Build 0)  -->
<svg version="1.1" id="layer" xmlns="http://www.w3.org/2000/svg" xmlns:xlink="http://www.w3.org/1999/xlink" x="0px" y="0px"
	 viewBox="-153 -46 652 652" style="enable-background:new -153 -46 652 652;" xml:space="preserve">
<style type="text/css">
	.st0{fill:#0054A6;}
</style>
<g>
	<path class="st0" d="M55.2,226.9c-7.9,32-15.7,64-23.6,96h24.8c0,0,7.9-32.1,11.8-47.8c0.6-2.4,1.2-4.8,1.8-7.1
		c0.1-0.3,0.4-0.5,0.6-0.7c0.2,0.2,0.5,0.4,0.6,0.6c0.1,0.1,0.1,0.3,0.2,0.5c6.2,14.6,12.4,29.3,18.6,43.9c1.1,2.6,2.2,5.2,3.4,7.7
		c0.7,1.6,2,2.7,3.9,2.8c0.7,0.1,1.4,0.1,2.1,0.1c6.5,0,12.9,0,19.4,0h1.1c7.9-32,15.7-64,23.6-96h-1.4c-7.3,0-14.6,0-22,0
		c-1.2,0-1.6,0.3-1.9,1.5c-4.3,17.9-8.7,35.8-13.1,53.7c-0.1,0.3-0.3,0.6-0.5,0.9c-0.2-0.3-0.6-0.5-0.7-0.8
		c-7.6-17.4-15.2-34.9-22.6-52.3c-0.9-2.2-2.3-3-4.4-3c-0.6,0-1.2,0-1.8,0c-6.2,0-12.4,0-18.6,0H55.2z"/>
	<path class="st0" d="M211.9,322.9c7.9-32,15.7-63.9,23.6-96h-1c-6.4,0-12.8,0-19.2,0c-0.9,0-1.1,0.3-1.3,1.1
		c-4.4,18.1-8.9,36.1-13.3,54.2c-0.6,2.2-1.1,4.5-1.7,6.7c-0.1,0.3-0.3,0.5-0.4,0.8c-0.2-0.2-0.4-0.5-0.7-0.7c0,0,0-0.1-0.1-0.2
		c-8.5-19.6-17-39.3-25.4-58.9c-0.9-2.2-2.3-3-4.5-2.9c-0.4,0-0.9,0-1.3,0c-5.1,0-10.2,0-15.3,0c-1.2,0-1.6,0.3-1.9,1.5
		c-7.2,29.6-14.5,59.2-21.8,88.8c-0.5,1.9-0.9,3.8-1.4,5.7c6.9,0,13.7,0,20.5,0c0.2,0,0.6-0.4,0.7-0.6c0.3-1.1,0.6-2.3,0.9-3.4
		c4.6-18.9,9.2-37.9,13.9-56.8c0.1-0.3,0.4-0.6,0.6-1c0.3,0.3,0.6,0.5,0.8,0.9c2.9,6.5,5.7,13,8.5,19.6
		c5.4,12.5,10.9,24.9,16.2,37.4c1.2,2.9,3,4,6.1,4c3,0,5.8,0,8.7,0H211.9z"/>
</g>
<g>
	<path class="st0" d="M249.8,266.2c0-0.3,0-0.4,0-0.5c1.9-7.4,3.8-14.9,5.6-22.3c0.2-1,0.6-1.3,1.6-1.3c16.1,0,32.2,0,48.2,0
		c0.8,0,1.2-0.2,1.4-1c0.6-2.8,1.3-5.6,2-8.3c0.5-2,0.9-4,1.4-6h-68.2c-7.9,32.1-15.7,64.1-23.6,96.1h68.1c1.3-5.3,2.6-10.7,4-16.2
		h-50.4c0.1-0.3,0.1-0.5,0.1-0.7c1.9-7.6,3.7-15.2,5.6-22.9c0.2-0.9,0.6-1.2,1.5-1.2c14,0,27.9,0,41.9,0h1.3
		c1.3-5.3,2.5-10.5,3.8-15.7H249.8z"/>
	<path class="st0" d="M386,227.3c-0.7,2.9-1.4,5.8-2.2,8.6c-0.4,1.6-0.9,3.2-1.2,4.8c-0.2,0.9-0.6,1.2-1.5,1.2
		c-12.1,0-24.1,0-36.2,0c-2.9,0-5.7,0.2-8.5,1.1c-5,1.7-7.8,5.4-9.1,10.4c-2.6,10.1-5,20.2-7.5,30.2c-1,4-2.1,8-2.8,12.1
		c-0.3,1.7-0.3,3.7,0,5.4c0.7,3.9,3.6,5.7,7.2,6.3c1.6,0.3,3.2,0.4,4.8,0.4c11.9,0,23.9,0,35.8,0h1.5c-1.1,4.8-2.3,9.6-3.4,14.3
		c-1.2,0.1-2.3,0.2-3.5,0.3c-14.6,0.4-29.2,0.8-43.8,1.1c-4.6,0.1-9-1.2-12.6-4.3c-3.2-2.7-4.9-6.3-5.6-10.4
		c-0.8-5.1,0.1-10,1.3-14.9c3.4-13.9,6.7-27.7,10.1-41.6c1.7-7.1,5-13.3,10.4-18.2c5-4.5,10.9-7.3,17.6-7.6
		c7.4-0.4,14.8-0.2,22.3-0.1c7.9,0.1,15.8,0.4,23.8,0.7C383.8,227.1,384.9,227.2,386,227.3"/>
	<path class="st0" d="M468.4,242.2c-0.5-4.4-2.2-8.2-5.8-11c-3.8-3-8.3-4.2-13-4.2c-10.9-0.1-21.8-0.1-32.7,0c-4.4,0-8.6,1-12.6,2.7
		c-9.8,4.3-15.6,12-18.1,22.1c-1.6,6.3-9,36.9-10.5,42.9c-1.1,4.5-2.1,8.9-1.5,13.5c0.6,4.6,2.6,8.4,6.5,11.1
		c3.6,2.5,7.7,3.4,12,3.5c5.6,0.1,11.2,0,16.7,0v0c5.4,0,10.8,0.1,16.2,0c5-0.1,9.7-1.2,14.1-3.5c8.9-4.6,14.3-12,16.7-21.6
		c1.8-7.1,9.1-37,10.3-41.9C467.8,251.4,468.9,246.9,468.4,242.2 M439.1,294.8c-1,3.8-2.7,7.2-6,9.5c-2.8,1.9-6,2.5-9.3,2.6
		c-3.5,0.1-18.8-0.1-22.9-0.2c-1.1,0-2.3-0.3-3.4-0.7c-3.6-1.3-5.3-4.4-4.5-8.7c0.8-4.3,1.8-8.6,2.9-12.8c0.6-2.6,6.1-25.1,7.5-30.8
		c0.8-3.1,2.1-6.1,4.7-8.2c2.3-1.8,5.1-2.7,7.9-2.7c8.7-0.1,17.4-0.1,26.1,0c1.5,0,3,0.5,4.4,1c2.2,0.8,3.2,2.6,3.4,4.9
		c0.2,3-0.6,5.8-1.3,8.6C447.4,261.7,440.7,288.7,439.1,294.8"/>
</g>
<g>
	<polygon class="st0" points="-30.1,226.9 47.6,226.9 41.3,252.3 -4.3,252.3 -7,263 30.3,263 24.7,286.2 -12.6,286.2 -15.2,296.1 
		30.2,296.1 23.8,322.9 -53.7,322.9 	"/>
</g>
<g>
	<path class="st0" d="M-72.8,259.4l-15.4,63.5H-120l10.6-44.7c5.3-20,15.8-18.7,34.7-18.7H-72.8z"/>
	<polygon class="st0" points="-44.3,252.3 -131.5,252.3 -125.3,226.8 -37.9,226.8 	"/>
	<polygon class="st0" points="-44.3,252.3 -131.5,252.3 -125.3,226.8 -37.9,226.8 	"/>
</g>
</svg>
